<mxfile host="app.diagrams.net" agent="Mozilla/5.0 (Macintosh; Intel Mac OS X 10_15_7) AppleWebKit/537.36 (KHTML, like Gecko) Chrome/137.0.0.0 Safari/537.36" version="27.1.6">
  <diagram name="Page-1" id="6RAiS-7Tyq2FOe7xY-6Q">
    <mxGraphModel dx="1306" dy="870" grid="1" gridSize="10" guides="1" tooltips="1" connect="1" arrows="1" fold="1" page="1" pageScale="1" pageWidth="1100" pageHeight="850" math="0" shadow="0">
      <root>
        <mxCell id="0" />
        <mxCell id="1" parent="0" />
        <mxCell id="rrsL9JgM0FAZPQCgBNde-12" value="" style="rounded=0;whiteSpace=wrap;html=1;strokeColor=none;" vertex="1" parent="1">
          <mxGeometry x="130" y="220" width="510" height="180" as="geometry" />
        </mxCell>
        <mxCell id="rrsL9JgM0FAZPQCgBNde-3" value="" style="edgeStyle=orthogonalEdgeStyle;rounded=0;orthogonalLoop=1;jettySize=auto;html=1;" edge="1" parent="1" source="rrsL9JgM0FAZPQCgBNde-1" target="rrsL9JgM0FAZPQCgBNde-2">
          <mxGeometry relative="1" as="geometry" />
        </mxCell>
        <mxCell id="rrsL9JgM0FAZPQCgBNde-5" value="Schedules&lt;div&gt;Jobs&lt;/div&gt;" style="edgeLabel;html=1;align=center;verticalAlign=middle;resizable=0;points=[];" vertex="1" connectable="0" parent="rrsL9JgM0FAZPQCgBNde-3">
          <mxGeometry x="-0.1" y="-3" relative="1" as="geometry">
            <mxPoint y="10" as="offset" />
          </mxGeometry>
        </mxCell>
        <mxCell id="rrsL9JgM0FAZPQCgBNde-1" value="Business Service" style="rounded=0;whiteSpace=wrap;html=1;strokeWidth=2;" vertex="1" parent="1">
          <mxGeometry x="160" y="250" width="120" height="60" as="geometry" />
        </mxCell>
        <mxCell id="rrsL9JgM0FAZPQCgBNde-9" style="edgeStyle=orthogonalEdgeStyle;rounded=0;orthogonalLoop=1;jettySize=auto;html=1;entryX=0.5;entryY=1;entryDx=0;entryDy=0;" edge="1" parent="1" source="rrsL9JgM0FAZPQCgBNde-2" target="rrsL9JgM0FAZPQCgBNde-1">
          <mxGeometry relative="1" as="geometry">
            <Array as="points">
              <mxPoint x="420" y="360" />
              <mxPoint x="220" y="360" />
            </Array>
          </mxGeometry>
        </mxCell>
        <mxCell id="rrsL9JgM0FAZPQCgBNde-11" value="Callback to execute Jobs" style="edgeLabel;html=1;align=center;verticalAlign=middle;resizable=0;points=[];" vertex="1" connectable="0" parent="rrsL9JgM0FAZPQCgBNde-9">
          <mxGeometry y="3" relative="1" as="geometry">
            <mxPoint y="5" as="offset" />
          </mxGeometry>
        </mxCell>
        <mxCell id="rrsL9JgM0FAZPQCgBNde-2" value="Jobs Service" style="whiteSpace=wrap;html=1;rounded=0;strokeWidth=2;" vertex="1" parent="1">
          <mxGeometry x="360" y="250" width="120" height="60" as="geometry" />
        </mxCell>
        <mxCell id="rrsL9JgM0FAZPQCgBNde-6" value="Storage" style="shape=cylinder3;whiteSpace=wrap;html=1;boundedLbl=1;backgroundOutline=1;size=15;strokeWidth=2;" vertex="1" parent="1">
          <mxGeometry x="550" y="250" width="60" height="60" as="geometry" />
        </mxCell>
        <mxCell id="rrsL9JgM0FAZPQCgBNde-7" style="edgeStyle=orthogonalEdgeStyle;rounded=0;orthogonalLoop=1;jettySize=auto;html=1;entryX=0;entryY=0.5;entryDx=0;entryDy=0;entryPerimeter=0;" edge="1" parent="1" source="rrsL9JgM0FAZPQCgBNde-2" target="rrsL9JgM0FAZPQCgBNde-6">
          <mxGeometry relative="1" as="geometry" />
        </mxCell>
        <mxCell id="rrsL9JgM0FAZPQCgBNde-8" value="Persists&lt;div&gt;Jobs&lt;/div&gt;" style="edgeLabel;html=1;align=center;verticalAlign=middle;resizable=0;points=[];" vertex="1" connectable="0" parent="rrsL9JgM0FAZPQCgBNde-7">
          <mxGeometry x="-0.1143" y="3" relative="1" as="geometry">
            <mxPoint y="16" as="offset" />
          </mxGeometry>
        </mxCell>
      </root>
    </mxGraphModel>
  </diagram>
</mxfile>
